<svg width="64" height="64" viewBox="0 0 64 64" fill="none" xmlns="http://www.w3.org/2000/svg">
<circle cx="32" cy="32" r="32" fill="#FEF3C7"/>
<circle cx="32" cy="32" r="24" fill="#FDE68A"/>
<path d="M37.3333 38.6667L44 32M44 32L37.3333 25.3333M44 32H28M28 20H26.4C24.1598 20 23.0397 20 22.184 20.436C21.4314 20.8195 20.8195 21.4314 20.436 22.184C20 23.0397 20 24.1598 20 26.4V37.6C20 39.8402 20 40.9603 20.436 41.816C20.8195 42.5686 21.4314 43.1805 22.184 43.564C23.0397 44 24.1598 44 26.4 44H28" stroke="#D97706" stroke-width="2" stroke-linecap="round" stroke-linejoin="round"/>
</svg>
