<svg width="175" height="146" viewBox="0 0 175 146" fill="none" xmlns="http://www.w3.org/2000/svg">
<path fill-rule="evenodd" clip-rule="evenodd" d="M83.8373 6.72949C104.11 6.72949 101.796 40.6198 116.431 50.9506C135.802 64.6235 169.126 57.8526 169.126 81.3189C169.126 122.512 125.902 137.436 78.7981 137.436C31.6942 137.436 -8.4973 114.59 5.5282 73.5042C19.5525 32.4187 36.7345 6.72949 83.8373 6.72949Z" fill="#E9EEF7"/>
<path fill-rule="evenodd" clip-rule="evenodd" d="M85.9101 146C128.339 146 162.942 144.864 162.942 143.473C162.942 142.082 128.337 140.947 85.9101 140.947C43.4829 140.947 8.87842 142.083 8.87842 143.473C8.87842 144.863 43.4829 146 85.9101 146Z" fill="#D1DEED"/>
<path fill-rule="evenodd" clip-rule="evenodd" d="M67.9307 119.3C55.6483 119.3 45.6919 121.424 45.6919 124.045C45.6919 126.665 55.6483 128.791 67.9307 128.791C80.2131 128.791 90.1707 126.665 90.1707 124.045C90.1707 121.424 80.2143 119.3 67.9307 119.3Z" fill="#D0A485"/>
<path fill-rule="evenodd" clip-rule="evenodd" d="M68.4033 105.621C80.6869 105.621 90.6433 107.744 90.6433 110.365C90.6433 112.987 80.6869 115.11 68.4033 115.11C56.1198 115.11 46.1646 112.986 46.1646 110.365C46.1646 107.745 56.1209 105.621 68.4033 105.621Z" fill="#D0A485"/>
<path fill-rule="evenodd" clip-rule="evenodd" d="M67.1609 92.8217C79.4433 92.8217 89.3997 94.9458 89.3997 97.5673C89.3997 100.189 79.4433 102.312 67.1609 102.312C54.8784 102.312 44.9209 100.187 44.9209 97.5673C44.9209 94.948 54.8784 92.8217 67.1609 92.8217Z" fill="#BADAF9"/>
<path fill-rule="evenodd" clip-rule="evenodd" d="M72.2613 112.919C59.9788 112.919 50.0225 115.043 50.0225 117.665C50.0225 120.286 59.9788 122.409 72.2613 122.409C84.5437 122.409 94.5012 120.285 94.5012 117.665C94.5012 115.044 84.5449 112.919 72.2613 112.919Z" fill="#D0A485"/>
<path fill-rule="evenodd" clip-rule="evenodd" d="M64.0735 99.2383C76.3559 99.2383 86.3135 101.364 86.3135 103.983C86.3135 106.602 76.3559 108.729 64.0735 108.729C51.7911 108.729 41.8335 106.604 41.8335 103.983C41.8335 101.361 51.7899 99.2383 64.0735 99.2383Z" fill="#BADAF9"/>
<path fill-rule="evenodd" clip-rule="evenodd" d="M62.8301 86.4403C75.1125 86.4403 85.0689 88.5644 85.0689 91.1849C85.0689 93.8053 75.1125 95.9305 62.8301 95.9305C50.5477 95.9305 40.5913 93.8064 40.5913 91.1849C40.5913 88.5633 50.5477 86.4403 62.8301 86.4403Z" fill="#BADAF9"/>
<path fill-rule="evenodd" clip-rule="evenodd" d="M67.9319 134.145C55.6483 134.145 45.6919 132.02 45.6919 129.4V124.045C45.6919 126.665 55.6483 128.79 67.9319 128.79C80.2155 128.79 90.1707 126.665 90.1707 124.045V129.4C90.1707 132.02 80.2143 134.145 67.9319 134.145Z" fill="#86644E"/>
<path fill-rule="evenodd" clip-rule="evenodd" d="M68.4045 120.464C80.6869 120.464 90.6433 118.34 90.6433 115.719V110.364C90.6433 112.986 80.6869 115.11 68.4045 115.11C56.1221 115.11 46.1646 112.986 46.1646 110.364V115.719C46.1646 118.34 56.1209 120.464 68.4045 120.464Z" fill="#86644E"/>
<path fill-rule="evenodd" clip-rule="evenodd" d="M67.1612 107.666C79.4436 107.666 89.4 105.542 89.4 102.921V97.5662C89.4 100.187 79.4436 102.312 67.1612 102.312C54.8787 102.312 44.9224 100.187 44.9224 97.5662V102.921C44.9224 105.542 54.8787 107.666 67.1612 107.666Z" fill="#619FDF"/>
<path fill-rule="evenodd" clip-rule="evenodd" d="M72.2613 127.763C59.9788 127.763 50.0225 125.639 50.0225 123.019V117.664C50.0225 120.285 59.9788 122.409 72.2613 122.409C84.5437 122.409 94.5012 120.285 94.5012 117.664V123.019C94.5012 125.639 84.5449 127.763 72.2613 127.763Z" fill="#86644E"/>
<path fill-rule="evenodd" clip-rule="evenodd" d="M64.0735 114.083C76.3559 114.083 86.3123 111.958 86.3123 109.338V103.983C86.3123 106.604 76.3559 108.728 64.0735 108.728C51.791 108.728 41.8335 106.604 41.8335 103.983V109.338C41.8335 111.958 51.7899 114.083 64.0735 114.083Z" fill="#619FDF"/>
<path fill-rule="evenodd" clip-rule="evenodd" d="M62.8301 101.285C75.1125 101.285 85.0689 99.1605 85.0689 96.5401V91.1848C85.0689 93.8064 75.1125 95.9305 62.8301 95.9305C50.5477 95.9305 40.5913 93.8064 40.5913 91.1848V96.5401C40.5913 99.1605 50.5477 101.285 62.8301 101.285Z" fill="#619FDF"/>
<path fill-rule="evenodd" clip-rule="evenodd" d="M53.6399 88.9087C53.0932 89.3395 52.5208 89.948 52.3496 90.7663L49.3056 90.8252L49.1309 92.0754L52.4035 92.0133C52.902 93.3523 54.9712 94.1152 57.784 94.0596C60.6825 94.0041 62.2989 93.0936 63.7933 91.83C65.1059 90.6331 66.1123 90.1934 67.5762 90.1656C69.0119 90.1379 70.0676 90.5631 69.9398 91.4825C69.8272 92.2864 69.0905 93.0514 68.3598 93.5622L71.521 93.8831C72.2201 93.3857 72.911 92.5451 73.0822 91.7268L76.3549 91.6635L76.5308 90.4121L73.0294 90.4798C72.599 89.0486 70.3644 88.2525 67.4366 88.3091C64.4525 88.3668 62.747 89.0875 61.0145 90.6231C59.7547 91.6535 58.8737 92.2176 57.553 92.2431C56.4339 92.2653 55.3184 91.8534 55.4381 90.9984C55.5413 90.2578 56.2322 89.6193 56.7166 89.2296L53.641 88.9076L53.6399 88.9087Z" fill="white"/>
<path fill-rule="evenodd" clip-rule="evenodd" d="M67.5586 79.897C55.2762 79.897 45.3198 82.0222 45.3198 84.6426C45.3198 87.2631 55.2762 89.3872 67.5586 89.3872C79.8411 89.3872 89.7974 87.2631 89.7974 84.6426C89.7974 82.0222 79.8411 79.897 67.5586 79.897Z" fill="#BADAF9"/>
<path d="M68.0313 75.7064C80.3134 75.7064 90.2701 73.5822 90.2701 70.9618C90.2701 68.3415 80.3134 66.2173 68.0313 66.2173C55.7491 66.2173 45.7925 68.3415 45.7925 70.9618C45.7925 73.5822 55.7491 75.7064 68.0313 75.7064Z" fill="#BADAF9"/>
<path fill-rule="evenodd" clip-rule="evenodd" d="M66.7878 53.4183C79.0714 53.4183 89.0278 55.5424 89.0278 58.164C89.0278 60.7856 79.0714 62.9086 66.7878 62.9086C54.5042 62.9086 44.5479 60.7844 44.5479 58.164C44.5479 55.5436 54.5042 53.4183 66.7878 53.4183Z" fill="#BADAF9"/>
<path d="M71.8882 83.006C84.1704 83.006 94.127 80.8817 94.127 78.2614C94.127 75.6411 84.1704 73.5168 71.8882 73.5168C59.6061 73.5168 49.6494 75.6411 49.6494 78.2614C49.6494 80.8817 59.6061 83.006 71.8882 83.006Z" fill="#BADAF9"/>
<path fill-rule="evenodd" clip-rule="evenodd" d="M63.7007 59.8351C75.9831 59.8351 85.9395 61.9592 85.9395 64.5796C85.9395 67.2001 75.9831 69.3253 63.7007 69.3253C51.4183 69.3253 41.4619 67.2001 41.4619 64.5796C41.4619 61.9592 51.4183 59.8351 63.7007 59.8351Z" fill="#BADAF9"/>
<path fill-rule="evenodd" clip-rule="evenodd" d="M62.4587 47.0382C74.7412 47.0382 84.6975 49.1623 84.6975 51.7828C84.6975 54.4032 74.7412 56.5273 62.4587 56.5273C50.1763 56.5273 40.2188 54.4032 40.2188 51.7828C40.2188 49.1623 50.1751 47.0382 62.4587 47.0382Z" fill="#BADAF9"/>
<path fill-rule="evenodd" clip-rule="evenodd" d="M67.5586 94.7424C55.2762 94.7424 45.3198 92.6172 45.3198 89.9967V84.6426C45.3198 87.263 55.2762 89.3871 67.5586 89.3871C79.8411 89.3871 89.7974 87.263 89.7974 84.6426V89.9967C89.7974 92.6172 79.8411 94.7424 67.5586 94.7424Z" fill="#619FDF"/>
<path fill-rule="evenodd" clip-rule="evenodd" d="M68.0313 81.0606C80.3137 81.0606 90.2701 78.9365 90.2701 76.315V70.9608C90.2701 73.5813 80.3137 75.7054 68.0313 75.7054C55.7489 75.7054 45.7925 73.5813 45.7925 70.9608V76.315C45.7925 78.9365 55.7489 81.0606 68.0313 81.0606Z" fill="#619FDF"/>
<path fill-rule="evenodd" clip-rule="evenodd" d="M66.7878 68.2638C79.0714 68.2638 89.0278 66.1385 89.0278 63.5181V58.1639C89.0278 60.7844 79.0714 62.9085 66.7878 62.9085C54.5042 62.9085 44.5479 60.7844 44.5479 58.1639V63.5181C44.5479 66.1385 54.5054 68.2638 66.7878 68.2638Z" fill="#619FDF"/>
<path fill-rule="evenodd" clip-rule="evenodd" d="M71.8882 88.3613C59.6058 88.3613 49.6494 86.2361 49.6494 83.6156V78.2615C49.6494 80.8819 59.6058 83.006 71.8882 83.006C84.1707 83.006 94.127 80.8819 94.127 78.2615V83.6156C94.127 86.2361 84.1707 88.3613 71.8882 88.3613Z" fill="#619FDF"/>
<path fill-rule="evenodd" clip-rule="evenodd" d="M63.7007 74.6794C75.9831 74.6794 85.9395 72.5553 85.9395 69.9348V64.5796C85.9395 67.2 75.9831 69.3241 63.7007 69.3241C51.4183 69.3241 41.4619 67.2 41.4619 64.5796V69.9348C41.4619 72.5553 51.4183 74.6794 63.7007 74.6794Z" fill="#619FDF"/>
<path fill-rule="evenodd" clip-rule="evenodd" d="M62.4576 61.8826C74.7412 61.8826 84.6975 59.7574 84.6975 57.137V51.7828C84.6975 54.4033 74.7412 56.5274 62.4576 56.5274C50.174 56.5274 40.2188 54.4033 40.2188 51.7828V57.137C40.2188 59.7574 50.1751 61.8826 62.4576 61.8826Z" fill="#619FDF"/>
<path fill-rule="evenodd" clip-rule="evenodd" d="M53.2668 49.5055C52.719 49.9363 52.1478 50.5459 51.9753 51.3642L48.9326 51.4231L48.7578 52.6744L52.0293 52.6112C52.5278 53.9514 54.5982 54.7131 57.4098 54.6587C60.3083 54.6031 61.9247 53.6926 63.4191 52.4291C64.7316 51.2321 65.7381 50.7924 67.202 50.7635C68.6365 50.7358 69.6934 51.161 69.5656 52.0804C69.4518 52.8843 68.7151 53.6493 67.9855 54.1601L71.1456 54.481C71.8447 53.9836 72.5356 53.143 72.708 52.3247L75.9795 52.2614L76.1555 51.01L72.6541 51.0777C72.2236 49.6476 69.989 48.8504 67.0612 48.907C64.076 48.9658 62.3716 49.6865 60.6391 51.221C59.3781 52.2514 58.4984 52.8155 57.1764 52.841C56.0574 52.8632 54.9407 52.4513 55.0615 51.5963C55.1659 50.8557 55.8556 50.2183 56.34 49.8275L53.2656 49.5055H53.2668Z" fill="white"/>
<path fill-rule="evenodd" clip-rule="evenodd" d="M40.0402 123.939C29.9513 123.939 21.772 125.685 21.772 127.837C21.772 129.989 29.9513 131.735 40.0402 131.735C50.1291 131.735 58.3084 129.989 58.3084 127.837C58.3084 125.685 50.1303 123.939 40.0402 123.939Z" fill="#BADAF9"/>
<path fill-rule="evenodd" clip-rule="evenodd" d="M42.5973 111.782C32.5084 111.782 24.3291 113.527 24.3291 115.679C24.3291 117.831 32.5084 119.577 42.5973 119.577C52.6862 119.577 60.8655 117.832 60.8655 115.679C60.8655 113.526 52.6862 111.782 42.5973 111.782Z" fill="#BADAF9"/>
<path fill-rule="evenodd" clip-rule="evenodd" d="M43.5978 118.697C33.5089 118.697 25.3296 120.443 25.3296 122.595C25.3296 124.747 33.5089 126.492 43.5978 126.492C53.6867 126.492 61.866 124.747 61.866 122.595C61.866 120.443 53.6879 118.697 43.5978 118.697Z" fill="#BADAF9"/>
<path fill-rule="evenodd" clip-rule="evenodd" d="M46.154 106.54C36.065 106.54 27.8857 108.286 27.8857 110.437C27.8857 112.589 36.065 114.335 46.154 114.335C56.2429 114.335 64.4222 112.589 64.4222 110.437C64.4222 108.286 56.2429 106.54 46.154 106.54Z" fill="#BADAF9"/>
<path fill-rule="evenodd" clip-rule="evenodd" d="M40.0402 136.133C29.9513 136.133 21.772 134.388 21.772 132.236V127.837C21.772 129.989 29.9513 131.734 40.0402 131.734C50.1291 131.734 58.3084 129.989 58.3084 127.837V132.236C58.3084 134.388 50.1303 136.133 40.0402 136.133Z" fill="#619FDF"/>
<path fill-rule="evenodd" clip-rule="evenodd" d="M42.5973 123.976C32.5084 123.976 24.3291 122.23 24.3291 120.077V115.679C24.3291 117.831 32.5084 119.577 42.5973 119.577C52.6862 119.577 60.8655 117.831 60.8655 115.679V120.077C60.8655 122.23 52.6862 123.976 42.5973 123.976Z" fill="#619FDF"/>
<path fill-rule="evenodd" clip-rule="evenodd" d="M43.5978 130.891C33.5089 130.891 25.3296 129.146 25.3296 126.994V122.596C25.3296 124.748 33.5089 126.493 43.5978 126.493C53.6867 126.493 61.866 124.748 61.866 122.596V126.994C61.866 129.146 53.6879 130.891 43.5978 130.891Z" fill="#619FDF"/>
<path fill-rule="evenodd" clip-rule="evenodd" d="M46.154 118.734C36.065 118.734 27.8857 116.99 27.8857 114.837V110.438C27.8857 112.59 36.065 114.336 46.154 114.336C56.2429 114.336 64.4222 112.59 64.4222 110.438V114.837C64.4222 116.99 56.2429 118.734 46.154 118.734Z" fill="#619FDF"/>
<path fill-rule="evenodd" clip-rule="evenodd" d="M37.7761 108.473C37.3268 108.827 36.8565 109.327 36.7157 109.999L34.2149 110.048L34.0718 111.075L36.7603 111.024C37.1708 112.124 38.8705 112.75 41.1813 112.706C43.5613 112.659 44.8891 111.912 46.1173 110.874C47.1952 109.891 48.0222 109.529 49.2245 109.506C50.4034 109.484 51.2714 109.832 51.1647 110.587C51.072 111.248 50.4667 111.877 49.8661 112.296L52.4632 112.56C53.0379 112.152 53.6045 111.461 53.7464 110.788L56.4337 110.736L56.578 109.709L53.7007 109.764C53.3476 108.589 51.5119 107.935 49.1072 107.981C46.6545 108.028 45.2551 108.621 43.8323 109.882C42.7965 110.728 42.0728 111.192 40.9877 111.213C40.0693 111.231 39.152 110.893 39.2494 110.191C39.335 109.582 39.9027 109.059 40.3004 108.738L37.7749 108.473H37.7761Z" fill="white"/>
<path fill-rule="evenodd" clip-rule="evenodd" d="M57.3081 121.64C57.3081 110.98 66.4363 102.339 77.6983 102.339C88.9602 102.339 98.0873 110.98 98.0873 121.64C98.0873 132.299 88.959 140.941 77.6983 140.941C66.4375 140.941 57.3081 132.3 57.3081 121.64Z" fill="#619FDF"/>
<path fill-rule="evenodd" clip-rule="evenodd" d="M60.3931 121.64C60.3931 112.594 68.1407 105.261 77.6982 105.261C87.2558 105.261 95.0011 112.594 95.0011 121.64C95.0011 130.686 87.2546 138.021 77.6982 138.021C68.1419 138.021 60.3931 130.687 60.3931 121.64Z" fill="#619FDF"/>
<path fill-rule="evenodd" clip-rule="evenodd" d="M86.7504 107.659C88.4735 110.205 89.4729 113.233 89.4729 116.482C89.4729 125.529 81.7265 132.862 72.1689 132.862C68.8505 132.862 65.7491 131.977 63.1157 130.444C66.1901 134.989 71.5718 138.001 77.6972 138.001C87.2536 138.001 95.0001 130.667 95.0001 121.62C95.0001 115.715 91.6993 110.542 86.7504 107.659Z" fill="#98C4F1"/>
<path fill-rule="evenodd" clip-rule="evenodd" d="M63.4242 123.138C63.4242 115.152 70.2628 108.68 78.699 108.68C83.6291 108.68 88.0149 110.892 90.8078 114.325C88.1709 109.99 83.2267 107.072 77.5623 107.072C69.1262 107.072 62.2876 113.545 62.2876 121.531C62.2876 124.849 63.47 127.904 65.4547 130.345C64.1644 128.224 63.4242 125.763 63.4242 123.139V123.138Z" fill="#A7D1FB"/>
<path fill-rule="evenodd" clip-rule="evenodd" d="M79.1256 111.067V113.154C80.01 113.29 80.7337 113.565 81.2968 113.985C81.8586 114.404 82.3947 115.047 82.905 115.912L80.7126 117.072C80.0522 115.936 79.1901 115.369 78.1262 115.369C77.4658 115.369 76.918 115.553 76.484 115.923C76.05 116.291 75.8318 116.752 75.8318 117.306C75.8318 117.81 76.0078 118.229 76.3608 118.563C76.7057 118.889 77.4024 119.276 78.4523 119.723C79.3602 120.114 80.1097 120.482 80.7021 120.826C81.2944 121.17 81.7402 121.502 82.0393 121.821C82.8874 122.687 83.3108 123.734 83.3108 124.961C83.3108 126.188 82.9284 127.233 82.1636 128.155C81.4059 129.07 80.3947 129.688 79.1267 130.009V132.213H77.1585V130.072C75.6887 129.844 74.5673 129.366 73.7955 128.635C73.0237 127.903 72.4536 126.775 72.0864 125.248L74.5614 124.759C74.8981 125.838 75.311 126.608 75.799 127.069C76.308 127.509 76.9872 127.729 77.8341 127.729C78.681 127.729 79.3484 127.477 79.9033 126.974C80.4499 126.478 80.7244 125.834 80.7244 125.046C80.7244 124.344 80.4956 123.779 80.0382 123.354C79.8047 123.149 79.4634 122.916 79.0094 122.656C78.5555 122.397 77.976 122.115 77.2711 121.81C75.8166 121.192 74.8606 120.625 74.4031 120.106C73.6758 119.333 73.3122 118.406 73.3122 117.327C73.3122 116.816 73.3978 116.341 73.5714 115.9C73.7439 115.461 73.9925 115.061 74.3186 114.703C74.6447 114.345 75.0482 114.034 75.528 113.772C76.0066 113.509 76.5508 113.303 77.1585 113.154V111.067H79.1267H79.1256Z" fill="white"/>
<path fill-rule="evenodd" clip-rule="evenodd" d="M48.5185 130.557C59.4285 130.557 68.274 132.445 68.274 134.773C68.274 137.101 59.4297 138.988 48.5185 138.988C37.6073 138.988 28.7617 137.1 28.7617 134.773C28.7617 132.446 37.6061 130.557 48.5185 130.557Z" fill="#BADAF9"/>
<path fill-rule="evenodd" clip-rule="evenodd" d="M48.5173 143.745C59.4285 143.745 68.274 141.857 68.274 139.53V134.773C68.274 137.101 59.4297 138.989 48.5173 138.989C37.6049 138.989 28.7617 137.101 28.7617 134.773V139.53C28.7617 141.857 37.6061 143.745 48.5173 143.745Z" fill="#619FDF"/>
<path fill-rule="evenodd" clip-rule="evenodd" d="M40.3534 132.75C39.8678 133.133 39.3587 133.675 39.2062 134.401L36.5037 134.453L36.3477 135.565L39.2543 135.509C39.6977 136.699 41.5358 137.376 44.0343 137.327C46.609 137.277 48.0448 136.47 49.3726 135.346C50.5385 134.283 51.4324 133.894 52.7332 133.867C54.0083 133.843 54.9467 134.22 54.8317 135.036C54.732 135.751 54.0763 136.432 53.4288 136.885L56.2369 137.17C56.8598 136.728 57.4721 135.982 57.6258 135.255L60.5325 135.198L60.6885 134.087L57.5777 134.147C57.1965 132.877 55.2106 132.169 52.6089 132.218C49.9579 132.27 48.4436 132.91 46.9046 134.274C45.7844 135.189 45.002 135.69 43.829 135.713C42.8343 135.733 41.8431 135.367 41.9499 134.608C42.0414 133.949 42.6548 133.384 43.0853 133.036L40.3546 132.75H40.3534Z" fill="white"/>
<path fill-rule="evenodd" clip-rule="evenodd" d="M104.809 119.9C92.0124 119.9 81.6396 122.113 81.6396 124.843C81.6396 127.573 92.0124 129.786 104.809 129.786C117.605 129.786 127.979 127.573 127.979 124.843C127.979 122.113 117.606 119.9 104.809 119.9Z" fill="#D0A485"/>
<path fill-rule="evenodd" clip-rule="evenodd" d="M109.32 113.252C96.5237 113.252 86.1509 115.465 86.1509 118.195C86.1509 120.926 96.5237 123.139 109.32 123.139C122.116 123.139 132.49 120.926 132.49 118.195C132.49 115.465 122.117 113.252 109.32 113.252Z" fill="#D0A485"/>
<path fill-rule="evenodd" clip-rule="evenodd" d="M104.809 135.365C92.0124 135.365 81.6396 133.152 81.6396 130.422V124.843C81.6396 127.574 92.0124 129.786 104.809 129.786C117.605 129.786 127.979 127.574 127.979 124.843V130.422C127.979 133.152 117.605 135.365 104.809 135.365Z" fill="#619FDF"/>
<path fill-rule="evenodd" clip-rule="evenodd" d="M105.302 121.112C118.099 121.112 128.471 118.899 128.471 116.169V110.591C128.471 113.321 118.099 115.534 105.302 115.534C92.5063 115.534 82.1323 113.321 82.1323 110.591V116.169C82.1323 118.899 92.5063 121.112 105.302 121.112Z" fill="#86644E"/>
<path fill-rule="evenodd" clip-rule="evenodd" d="M109.32 128.717C96.5234 128.717 86.1494 126.504 86.1494 123.774V118.195C86.1494 120.926 96.5234 123.139 109.32 123.139C122.116 123.139 132.49 120.926 132.49 118.195V123.774C132.49 126.504 122.116 128.717 109.32 128.717Z" fill="#86644E"/>
<path fill-rule="evenodd" clip-rule="evenodd" d="M75.7522 124.732C65.2399 124.732 56.7192 126.551 56.7192 128.794C56.7192 131.037 65.2399 132.854 75.7522 132.854C86.2646 132.854 94.7841 131.036 94.7841 128.794C94.7841 126.552 86.2635 124.732 75.7522 124.732Z" fill="#BADAF9"/>
<path fill-rule="evenodd" clip-rule="evenodd" d="M78.4163 112.067C67.9051 112.067 59.3833 113.886 59.3833 116.128C59.3833 118.37 67.9051 120.188 78.4163 120.188C88.9275 120.188 97.4481 118.371 97.4481 116.128C97.4481 113.885 88.9275 112.067 78.4163 112.067Z" fill="#BADAF9"/>
<path fill-rule="evenodd" clip-rule="evenodd" d="M79.4576 119.27C68.9464 119.27 60.4258 121.089 60.4258 123.332C60.4258 125.575 68.9464 127.393 79.4576 127.393C89.9688 127.393 98.4895 125.574 98.4895 123.332C98.4895 121.09 89.9688 119.27 79.4576 119.27Z" fill="#BADAF9"/>
<path fill-rule="evenodd" clip-rule="evenodd" d="M82.1217 106.606C71.6105 106.606 63.0898 108.424 63.0898 110.666C63.0898 112.908 71.6105 114.727 82.1217 114.727C92.6329 114.727 101.155 112.909 101.155 110.666C101.155 108.423 92.6341 106.606 82.1217 106.606Z" fill="#BADAF9"/>
<path fill-rule="evenodd" clip-rule="evenodd" d="M75.7511 137.436C65.2399 137.436 56.7192 135.617 56.7192 133.375V128.794C56.7192 131.036 65.2399 132.854 75.7511 132.854C86.2623 132.854 94.7841 131.036 94.7841 128.794V133.375C94.7841 135.617 86.2635 137.436 75.7511 137.436Z" fill="#619FDF"/>
<path fill-rule="evenodd" clip-rule="evenodd" d="M78.4161 124.771C67.9049 124.771 59.3843 122.952 59.3843 120.71V116.128C59.3843 118.371 67.9049 120.188 78.4161 120.188C88.9273 120.188 97.448 118.371 97.448 116.128V120.71C97.448 122.952 88.9273 124.771 78.4161 124.771Z" fill="#619FDF"/>
<path fill-rule="evenodd" clip-rule="evenodd" d="M79.4576 131.975C68.9464 131.975 60.4258 130.156 60.4258 127.914V123.333C60.4258 125.575 68.9464 127.394 79.4576 127.394C89.9688 127.394 98.4895 125.575 98.4895 123.333V127.914C98.4895 130.156 89.9688 131.975 79.4576 131.975Z" fill="#619FDF"/>
<path fill-rule="evenodd" clip-rule="evenodd" d="M82.1217 119.31C71.6105 119.31 63.0898 117.491 63.0898 115.25V110.667C63.0898 112.91 71.6105 114.728 82.1217 114.728C92.6329 114.728 101.155 112.91 101.155 110.667V115.25C101.155 117.491 92.6341 119.31 82.1217 119.31Z" fill="#619FDF"/>
<path fill-rule="evenodd" clip-rule="evenodd" d="M73.3933 108.62C72.9253 108.988 72.435 109.51 72.2884 110.21L69.6843 110.261L69.5342 111.331L72.3341 111.277C72.7611 112.424 74.5311 113.076 76.9393 113.029C79.4214 112.981 80.8043 112.202 82.0829 111.12C83.2066 110.096 84.0664 109.72 85.3192 109.696C86.5485 109.672 87.4517 110.035 87.3414 110.823C87.2452 111.511 86.6142 112.165 85.9901 112.603L88.695 112.877C89.2933 112.45 89.8845 111.732 90.0323 111.031L92.8322 110.977L92.9823 109.905L89.9865 109.964C89.6182 108.74 87.705 108.059 85.2007 108.108C82.6459 108.157 81.1879 108.774 79.7052 110.088C78.6249 110.969 77.873 111.452 76.7422 111.474C75.7851 111.493 74.8291 111.141 74.9323 110.41C75.0203 109.776 75.6115 109.23 76.0255 108.896L73.3945 108.62H73.3933Z" fill="white"/>
<path fill-rule="evenodd" clip-rule="evenodd" d="M93.7412 122.337C93.7412 111.232 103.252 102.23 114.983 102.23C126.714 102.23 136.224 111.232 136.224 122.337C136.224 133.442 126.714 142.443 114.983 142.443C103.252 142.443 93.7412 133.441 93.7412 122.337Z" fill="#619FDF"/>
<path fill-rule="evenodd" clip-rule="evenodd" d="M96.9565 122.337C96.9565 112.912 105.028 105.271 114.984 105.271C124.941 105.271 133.012 112.911 133.012 122.337C133.012 131.763 124.941 139.402 114.984 139.402C105.028 139.402 96.9565 131.762 96.9565 122.337Z" fill="#BADAF9"/>
<path fill-rule="evenodd" clip-rule="evenodd" d="M124.415 107.771C126.211 110.425 127.251 113.58 127.251 116.964C127.251 126.389 119.181 134.029 109.223 134.029C105.765 134.029 102.536 133.106 99.7925 131.509C102.996 136.243 108.603 139.381 114.984 139.381C124.94 139.381 133.012 131.742 133.012 122.316C133.012 116.165 129.572 110.774 124.416 107.771H124.415Z" fill="#A3CFFB"/>
<path fill-rule="evenodd" clip-rule="evenodd" d="M100.114 123.898C100.114 115.579 107.239 108.835 116.028 108.835C121.166 108.835 125.734 111.139 128.643 114.716C125.894 110.2 120.744 107.161 114.844 107.161C106.054 107.161 98.9307 113.905 98.9307 122.224C98.9307 125.68 100.161 128.865 102.23 131.406C100.885 129.197 100.115 126.633 100.115 123.898H100.114Z" fill="#A7D1FB"/>
<path fill-rule="evenodd" clip-rule="evenodd" d="M116.471 111.322V113.496C117.393 113.636 118.148 113.925 118.733 114.361C119.318 114.799 119.877 115.467 120.408 116.369L118.123 117.578C117.437 116.394 116.537 115.803 115.429 115.803C114.741 115.803 114.17 115.995 113.717 116.38C113.264 116.765 113.038 117.245 113.038 117.822C113.038 118.346 113.221 118.784 113.588 119.131C113.947 119.471 114.674 119.874 115.768 120.339C116.712 120.747 117.493 121.129 118.11 121.488C118.728 121.846 119.192 122.192 119.505 122.525C120.388 123.426 120.829 124.518 120.829 125.797C120.829 127.076 120.431 128.163 119.634 129.125C118.844 130.078 117.79 130.721 116.47 131.054V133.351H114.42V131.121C112.888 130.885 111.721 130.385 110.916 129.623C110.111 128.861 109.518 127.686 109.134 126.097L111.713 125.586C112.063 126.71 112.494 127.512 113.002 127.993C113.532 128.452 114.239 128.682 115.122 128.682C116.006 128.682 116.7 128.418 117.278 127.894C117.848 127.377 118.134 126.707 118.134 125.887C118.134 125.155 117.895 124.567 117.418 124.124C117.176 123.909 116.819 123.667 116.347 123.396C115.874 123.126 115.27 122.832 114.536 122.515C113.02 121.872 112.025 121.28 111.548 120.74C110.789 119.934 110.412 118.969 110.412 117.846C110.412 117.313 110.501 116.817 110.681 116.359C110.86 115.9 111.12 115.484 111.46 115.111C111.801 114.737 112.219 114.414 112.72 114.14C113.22 113.867 113.788 113.653 114.42 113.497V111.323H116.47L116.471 111.322Z" fill="white"/>
<path fill-rule="evenodd" clip-rule="evenodd" d="M84.585 131.627C95.9513 131.627 105.166 133.594 105.166 136.019C105.166 138.444 95.9513 140.41 84.585 140.41C73.2187 140.41 64.0024 138.444 64.0024 136.019C64.0024 133.594 73.2163 131.627 84.585 131.627Z" fill="#BADAF9"/>
<path fill-rule="evenodd" clip-rule="evenodd" d="M84.5838 145.366C95.9513 145.366 105.166 143.399 105.166 140.974V136.02C105.166 138.445 95.9513 140.411 84.5838 140.411C73.2163 140.411 64.0024 138.445 64.0024 136.02V140.974C64.0024 143.399 73.2163 145.366 84.5838 145.366Z" fill="#619FDF"/>
<path fill-rule="evenodd" clip-rule="evenodd" d="M76.0783 133.913C75.5716 134.311 75.0425 134.875 74.883 135.631L72.0667 135.686L71.9048 136.843L74.9335 136.784C75.3944 138.024 77.3099 138.729 79.9128 138.678C82.5966 138.627 84.091 137.786 85.474 136.615C86.6892 135.508 87.6206 135.101 88.9754 135.074C90.3032 135.048 91.2815 135.442 91.163 136.292C91.0586 137.037 90.3771 137.744 89.7015 138.217L92.6269 138.514C93.2744 138.054 93.9125 137.276 94.072 136.519L97.1007 136.46L97.2626 135.302L94.0216 135.365C93.6251 134.041 91.556 133.304 88.8463 133.356C86.0839 133.411 84.5063 134.077 82.9028 135.498C81.7357 136.452 80.9204 136.974 79.6993 136.998C78.6624 137.018 77.6302 136.637 77.7416 135.846C77.8378 135.16 78.4771 134.571 78.924 134.208L76.0783 133.91V133.913Z" fill="white"/>
<path fill-rule="evenodd" clip-rule="evenodd" d="M84.9578 36.4878C84.9578 36.4878 83.9561 35.3374 83.4177 35.1764C82.8793 35.0154 81.8376 34.2515 81.7016 34.5669C81.5655 34.8811 82.4019 35.3663 82.3585 35.7261C82.3139 36.0858 79.7005 36.6632 79.7169 37.0441C79.7321 37.4249 80.3315 38.3443 81.3286 38.2388C82.3256 38.1333 84.8546 37.5648 85.373 37.8102C85.8927 38.0556 84.9578 36.4889 84.9578 36.4889V36.4878Z" fill="#FFB17D"/>
<path fill-rule="evenodd" clip-rule="evenodd" d="M111.919 30.8938C110.442 32.7703 108.714 34.2526 106.938 35.4218C101.294 39.1382 95.172 39.6923 95.172 39.6923C93.7046 39.247 89.1979 38.7829 86.5341 38.3776C85.3728 38.201 84.5634 38.0345 84.5083 37.8868L84.5752 35.6905C84.5752 35.6905 94.3509 35.2009 95.9696 34.4902C98.5221 32.4083 100.777 29.7057 102.247 27.5927C103.489 25.8095 104.877 24.4926 107.168 23.7198C110.481 22.6016 116.503 25.0655 111.92 30.8927L111.919 30.8938Z" fill="#F47A44"/>
<path fill-rule="evenodd" clip-rule="evenodd" d="M107.437 34.0405L106.938 35.4229C101.294 39.1393 95.1721 39.6933 95.1721 39.6933C93.9933 39.6933 89.198 38.7839 86.5342 38.3787C86.6386 38.3864 93.7868 38.915 95.3657 38.7606C96.9562 38.6052 104.365 32.5282 104.365 32.5282L107.437 34.0405Z" fill="#EF6A30"/>
<path fill-rule="evenodd" clip-rule="evenodd" d="M101.055 103.634H111.858C112.632 103.137 111.65 98.2792 111.65 98.2792C111.65 98.2792 108.701 97.221 108.192 99.374C107.681 101.526 104.438 102.21 102.719 102.474C101.545 102.655 101.173 103.266 101.056 103.636L101.055 103.634Z" fill="#284190"/>
<path fill-rule="evenodd" clip-rule="evenodd" d="M117.078 103.634H127.881C128.654 103.137 127.671 98.2792 127.671 98.2792C127.671 98.2792 124.723 97.221 124.213 99.374C123.703 101.526 120.457 102.21 118.74 102.474C117.566 102.655 117.193 103.266 117.077 103.636L117.078 103.634Z" fill="#284190"/>
<path fill-rule="evenodd" clip-rule="evenodd" d="M103.961 54.0748C103.961 54.0748 104.447 59.8098 105.018 66.7029C105.794 76.0665 107.886 99.2852 107.886 99.2852C107.886 99.2852 109.258 100.393 112.296 99.7871C112.296 99.7871 114.881 91.777 115.656 82.6354C115.668 82.4855 115.68 82.3345 115.693 82.1846C116.412 72.8776 117.529 53.282 117.529 53.282L103.963 54.0759L103.961 54.0748Z" fill="#4567C5"/>
<path fill-rule="evenodd" clip-rule="evenodd" d="M103.796 52.0928C103.796 52.0928 104.448 59.8086 105.018 66.7029L115.655 82.6343C115.667 82.4844 115.679 82.3334 115.691 82.1835C116.41 72.8764 117.528 53.2809 117.528 53.2809L103.795 52.0928H103.796Z" fill="#3B5BB2"/>
<path fill-rule="evenodd" clip-rule="evenodd" d="M106.896 52.0927C106.896 52.0927 114.611 70.2715 117.078 77.1613C118.834 82.0702 123.788 99.2885 123.788 99.2885C123.788 99.2885 125.942 99.9103 127.753 98.71C127.753 98.71 129.597 81.1175 125.873 76.1575C123.898 73.526 125.383 48.8016 117.373 48.5896C109.363 48.3775 106.895 52.0938 106.895 52.0938L106.896 52.0927Z" fill="#4567C5"/>
<path fill-rule="evenodd" clip-rule="evenodd" d="M110.343 25.2953C111.52 25.8816 112.67 25.9182 113.666 25.7184C114.577 25.5374 115.36 25.1565 115.918 24.819C116.489 24.4726 116.827 24.1717 116.827 24.1717C116.827 24.1717 116.786 24.1173 116.719 24.0095C116.371 23.4466 115.316 21.4202 115.785 18.1668C115.791 18.1247 115.451 18.1846 114.936 18.299C113.405 18.6421 110.328 19.4682 110.191 19.5048H110.187C110.187 19.5048 110.149 20.1899 110.021 21.4169C110.011 21.5246 109.999 21.6378 109.987 21.7544C109.972 21.8976 109.955 22.0509 109.937 22.2074C109.794 23.4832 110.342 25.2953 110.342 25.2953H110.343Z" fill="#FFB17D"/>
<path fill-rule="evenodd" clip-rule="evenodd" d="M110.022 21.4168C112.307 21.9132 115.718 18.7187 115.718 18.7187C115.468 18.5421 115.207 18.4044 114.936 18.299C113.405 18.6421 110.327 19.4682 110.191 19.5048H110.186C110.186 19.5048 110.149 20.1899 110.021 21.4168H110.022Z" fill="#EF8161"/>
<path fill-rule="evenodd" clip-rule="evenodd" d="M109.321 19.7315C109.321 19.7315 110.292 20.0624 111.531 20.22C113.342 20.451 115.724 20.3144 116.474 18.2391C117.734 14.746 119.344 12.6529 115.635 11.2261C113.649 10.4633 112.379 10.4222 111.516 10.7143C110.766 10.9652 110.324 11.4682 109.99 11.9645C109.269 13.0338 107.821 19.1208 109.321 19.7315Z" fill="#FFB17D"/>
<path fill-rule="evenodd" clip-rule="evenodd" d="M113.113 12.6539C114.035 13.0425 114.202 14.5071 114.218 14.9723C114.235 15.4387 114.3 15.8317 115.553 15.553C115.758 15.5075 115.906 15.5208 116.008 15.5797C116.528 15.8706 115.864 17.2863 115.663 17.5917C115.663 17.5917 115.375 18.6065 116.015 19.0995C116.093 19.1584 117.349 19.678 120.378 15.291C120.854 14.6026 121.308 12.9726 120.573 11.4791C121.752 7.50851 109.368 6.03506 107.774 8.741C104.891 13.6488 114.339 12.3064 113.114 12.655L113.113 12.6539Z" fill="#284190"/>
<path fill-rule="evenodd" clip-rule="evenodd" d="M102.756 49.0315C102.922 51.1146 103.387 52.6069 104.406 52.6069C104.406 52.6069 108.938 54.117 114.357 54.1569C115.416 54.1636 116.914 53.9693 118.158 53.7728C119.429 53.5685 120.434 53.3641 120.434 53.3641C121.524 53.1254 122.725 52.4881 122.564 51.3133C122.471 50.6471 122.408 49.781 122.365 48.7728C122.245 46.0502 122.265 42.2972 122.251 38.7052C122.24 36.4989 122.218 34.3548 122.139 32.5461C122.139 32.5461 123.208 25.4398 122.021 24.2739C120.631 22.9104 116.547 22.4907 116.291 22.5429C116.215 22.5284 116.137 22.5095 116.059 22.4962C116.059 22.4962 112.579 24.3527 109.995 22.9792C109.995 22.9792 109.971 22.9837 109.923 22.9892C109.293 23.0836 106.151 23.7709 105.068 24.8557C104.693 25.2299 103.199 27.5239 103.158 30.0433C103.1 33.5554 103.246 37.5449 103.246 37.546C103.207 38.1167 103.143 38.8518 103.071 39.6912C102.996 40.5862 102.913 41.5966 102.841 42.6492C102.806 43.18 102.773 43.7218 102.747 44.2648C102.666 45.9359 102.642 47.6192 102.754 49.0293L102.756 49.0315Z" fill="#F47A44"/>
<path fill-rule="evenodd" clip-rule="evenodd" d="M116.273 22.5472C116.273 22.5472 112.425 26.3058 109.673 25.5363C109.673 25.5363 109.306 25.0278 110.546 24.8657C111.784 24.7024 113.123 24.7691 116.273 22.5472Z" fill="#EF6A30"/>
<path fill-rule="evenodd" clip-rule="evenodd" d="M118.713 35.7561C118.713 35.7561 118.705 45.9203 122.364 48.7728C122.245 46.0502 122.265 42.2972 122.251 38.7052L118.713 35.755V35.7561Z" fill="#EF6A30"/>
<path fill-rule="evenodd" clip-rule="evenodd" d="M129.964 54.7831C129.964 54.7831 131.827 57.5523 131.931 58.6116C132.002 59.3322 131.832 62.1736 131.452 62.1825C130.914 62.1969 130.38 60.4292 130.171 59.9707C129.963 59.511 129.72 59.1512 129.514 59.1512C129.308 59.1512 129.964 60.92 129.514 60.7246C129.064 60.5281 128.302 58.8903 128.233 58.4972C128.164 58.103 128.639 56.8439 128.407 56.3487C128.174 55.8524 129.963 54.7831 129.963 54.7831H129.964Z" fill="#FFB17D"/>
<path fill-rule="evenodd" clip-rule="evenodd" d="M121.667 23.8898C121.667 23.8898 124.184 25.0157 126.296 33.3511C127.887 39.6346 130.935 55.6804 130.935 55.6804L128.357 56.6831C128.357 56.6831 118.922 36.1759 117.572 33.2923C116.223 30.4087 121.668 23.8909 121.668 23.8909L121.667 23.8898Z" fill="#F47A44"/>
<path fill-rule="evenodd" clip-rule="evenodd" d="M110.456 10.5221C109.312 10.8663 108.833 11.4237 109.015 12.1954C110.386 13.2047 111.839 13.5678 113.372 13.2869C112.542 13.0526 111.569 12.131 110.456 10.5232V10.5221Z" fill="#284190"/>
<path fill-rule="evenodd" clip-rule="evenodd" d="M120.11 12.3231C119.851 11.819 119.898 11.4659 120.252 11.2649C121.101 11.387 121.732 11.7546 122.149 12.3708C121.777 12.1687 121.098 12.1532 120.11 12.3231Z" fill="#284190"/>
<path fill-rule="evenodd" clip-rule="evenodd" d="M118.819 12.1587C118.963 12.9071 119.313 13.2557 119.87 13.2069C120.693 12.4308 121.072 11.5491 121.005 10.5609C120.771 11.0639 120.042 11.5958 118.819 12.1587Z" fill="#284190"/>
<path fill-rule="evenodd" clip-rule="evenodd" d="M110.847 14.4472C110.516 14.2307 110.233 14.0075 109.885 13.791C109.375 13.4745 109.126 13.7987 108.724 13.7366C108.821 13.7099 108.815 13.6822 108.935 13.6211C109.58 13.2946 110.003 13.5056 110.542 13.9031C110.841 14.1241 110.924 14.063 110.848 14.4472H110.847Z" fill="#125AA2"/>
<path fill-rule="evenodd" clip-rule="evenodd" d="M109.867 14.0996C109.673 14.0541 109.477 14.1662 109.429 14.3494C109.381 14.5327 109.499 14.7181 109.693 14.7636C109.887 14.8091 110.082 14.697 110.13 14.5138C110.178 14.3306 110.06 14.1451 109.867 14.0996Z" fill="white"/>
<path fill-rule="evenodd" clip-rule="evenodd" d="M109.694 14.7636C109.499 14.718 109.382 14.5326 109.43 14.3494C109.478 14.1651 109.674 14.054 109.868 14.0996C109.949 14.1173 110.017 14.1617 110.065 14.2195L110.04 14.2095C109.976 14.195 109.913 14.2317 109.897 14.2905C109.881 14.3505 109.92 14.4105 109.982 14.4249C110.044 14.4393 110.109 14.4027 110.124 14.3438L110.126 14.3316C110.145 14.3882 110.148 14.4504 110.132 14.5126C110.084 14.6969 109.888 14.8091 109.694 14.7624V14.7636Z" fill="#125AA2"/>
<path fill-rule="evenodd" clip-rule="evenodd" d="M112.355 14.8001C112.755 14.7534 113.114 14.6813 113.53 14.6446C114.135 14.5891 114.198 14.9866 114.584 15.1076C114.51 15.041 114.53 15.0188 114.454 14.9122C114.043 14.3393 113.565 14.3393 112.894 14.4536C112.52 14.5169 112.477 14.4259 112.355 14.8001Z" fill="#125AA2"/>
<path fill-rule="evenodd" clip-rule="evenodd" d="M113.392 14.9248C113.587 14.9703 113.704 15.1546 113.656 15.3378C113.608 15.5221 113.412 15.6332 113.219 15.5876C113.024 15.5421 112.907 15.3578 112.955 15.1735C113.003 14.9903 113.199 14.8792 113.392 14.9248Z" fill="white"/>
<path fill-rule="evenodd" clip-rule="evenodd" d="M113.22 15.5886C113.414 15.6341 113.609 15.522 113.657 15.3388C113.705 15.1544 113.587 14.969 113.393 14.9235C113.312 14.9046 113.23 14.9135 113.16 14.9435L113.188 14.9457C113.251 14.9601 113.289 15.0201 113.274 15.08C113.258 15.14 113.194 15.1755 113.132 15.1611C113.07 15.1467 113.031 15.0856 113.046 15.0267L113.051 15.0145C113.006 15.0567 112.973 15.1111 112.957 15.1733C112.909 15.3576 113.027 15.5431 113.221 15.5886H113.22Z" fill="#125AA2"/>
<path d="M110.833 16.801C110.833 16.801 110.826 16.801 110.822 16.801C110.656 16.7766 110.519 16.6889 110.414 16.5379C110.359 16.4169 110.405 16.1704 111.118 15.171C111.14 15.1411 111.185 15.1322 111.22 15.1533C111.253 15.1755 111.262 15.2177 111.24 15.2499C110.53 16.2436 110.528 16.4369 110.543 16.4724C110.618 16.5801 110.72 16.6456 110.845 16.6634C110.884 16.6689 110.911 16.7044 110.907 16.7422C110.901 16.7766 110.87 16.801 110.834 16.801H110.833Z" fill="#FB9674"/>
<path fill-rule="evenodd" clip-rule="evenodd" d="M109.547 17.6549C110.133 18.39 110.827 18.4954 111.627 17.9714C110.722 17.9092 110.025 17.7682 109.547 17.6549Z" fill="white"/>
<path fill-rule="evenodd" clip-rule="evenodd" d="M35.7563 28.9429C35.7563 15.2866 47.4511 4.21631 61.8766 4.21631C76.3021 4.21631 87.998 15.2866 87.998 28.9429C87.998 42.5991 76.3033 53.6694 61.8766 53.6694C47.4499 53.6694 35.7563 42.5991 35.7563 28.9429Z" fill="#619FDF"/>
<path fill-rule="evenodd" clip-rule="evenodd" d="M39.7095 28.9428C39.7095 17.354 49.6342 7.95813 61.8767 7.95813C74.1193 7.95813 84.0463 17.354 84.0463 28.9428C84.0463 40.5316 74.1204 49.9274 61.8767 49.9274C49.633 49.9274 39.7095 40.5327 39.7095 28.9428Z" fill="#BADAF9"/>
<path fill-rule="evenodd" clip-rule="evenodd" d="M73.475 11.0327C75.6826 14.2949 76.9623 18.1734 76.9623 22.3362C76.9623 33.9249 67.0376 43.3208 54.7939 43.3208C50.5418 43.3208 46.57 42.1871 43.1953 40.2218C47.1354 46.0434 54.0291 49.903 61.8753 49.903C74.119 49.903 84.0449 40.5071 84.0449 28.9183C84.0449 21.3535 79.8162 14.7247 73.475 11.0327Z" fill="#A3CFFB"/>
<path fill-rule="evenodd" clip-rule="evenodd" d="M43.5919 30.8626C43.5919 20.6318 52.353 12.3385 63.161 12.3385C69.4776 12.3385 75.095 15.1722 78.6738 19.5703C75.2944 14.0174 68.9614 10.2788 61.7053 10.2788C50.8973 10.2788 42.1362 18.5721 42.1362 28.8029C42.1362 33.0533 43.6494 36.9685 46.1924 40.0941C44.5385 37.376 43.5931 34.2237 43.5931 30.8615L43.5919 30.8626Z" fill="#D1E4F6"/>
<path fill-rule="evenodd" clip-rule="evenodd" d="M63.7064 15.3987V18.0724C64.8407 18.2445 65.7673 18.6009 66.4875 19.1361C67.2089 19.6724 67.8951 20.4952 68.5485 21.6045L65.738 23.0912C64.8934 21.6367 63.7885 20.9094 62.4255 20.9094C61.5797 20.9094 60.8783 21.1459 60.3211 21.6189C59.7639 22.0908 59.4848 22.6826 59.4848 23.3921C59.4848 24.0384 59.7111 24.5736 60.1627 25.0022C60.605 25.4208 61.4976 25.9149 62.843 26.4889C64.0055 26.9886 64.9662 27.4594 65.7251 27.9002C66.484 28.341 67.0553 28.7663 67.4388 29.1749C68.525 30.2841 69.0669 31.6254 69.0669 33.1977C69.0669 34.77 68.5778 36.108 67.5972 37.2894C66.6271 38.4619 65.331 39.2536 63.7064 39.6633V42.487H61.1844V39.7455C59.3018 39.4535 57.866 38.8405 56.876 37.9045C55.886 36.9674 55.1564 35.5217 54.686 33.5663L57.8566 32.939C58.2883 34.3214 58.8173 35.3085 59.4414 35.8992C60.0947 36.4633 60.9639 36.7442 62.0489 36.7442C63.1339 36.7442 63.9891 36.4222 64.6999 35.776C65.4013 35.1397 65.7521 34.3158 65.7521 33.3076C65.7521 32.4071 65.4588 31.6843 64.8735 31.1391C64.5767 30.8748 64.1357 30.5784 63.555 30.2464C62.9732 29.9144 62.2307 29.5524 61.3287 29.1627C59.4648 28.371 58.2402 27.6437 57.6537 26.9797C56.7224 25.9893 56.2567 24.8023 56.2567 23.4199C56.2567 22.7648 56.3669 22.1552 56.5886 21.5911C56.8092 21.0282 57.1294 20.5163 57.547 20.0566C57.9646 19.5981 58.4818 19.2005 59.0965 18.8641C59.7111 18.5277 60.4079 18.2634 61.1856 18.0724V15.3987H63.7075H63.7064Z" fill="white"/>
<path fill-rule="evenodd" clip-rule="evenodd" d="M136.214 94.6605H160.664C161.052 94.6605 161.368 94.3629 161.368 93.9943C161.368 93.6257 161.053 93.3281 160.664 93.3281H136.214C135.823 93.3281 135.51 93.6257 135.51 93.9943C135.51 94.3629 135.823 94.6605 136.214 94.6605ZM171.145 89.1498H174.056C174.443 89.1498 174.759 88.8522 174.759 88.4836C174.759 88.115 174.444 87.8174 174.055 87.8174H171.143C170.755 87.8174 170.44 88.115 170.44 88.4836C170.44 88.8522 170.754 89.1498 171.143 89.1498H171.145ZM166.488 94.6605H168.817C169.205 94.6605 169.52 94.3629 169.52 93.9943C169.52 93.6257 169.205 93.3281 168.816 93.3281H166.488C166.098 93.3281 165.784 93.6257 165.784 93.9943C165.784 94.3629 166.097 94.6605 166.488 94.6605ZM140.871 89.1498H166.488C166.875 89.1498 167.19 88.8522 167.19 88.4836C167.19 88.115 166.876 87.8174 166.487 87.8174H140.871C140.484 87.8174 140.167 88.115 140.167 88.4836C140.167 88.8522 140.481 89.1498 140.871 89.1498Z" fill="#A3CFFB"/>
<path fill-rule="evenodd" clip-rule="evenodd" d="M1.09442 105.472H25.5455C25.9338 105.472 26.2493 105.174 26.2493 104.806C26.2493 104.437 25.9349 104.139 25.5455 104.139H1.09442C0.704988 104.139 0.390625 104.437 0.390625 104.806C0.390625 105.174 0.704988 105.472 1.09442 105.472ZM36.025 99.9612H38.9364C39.3247 99.9612 39.6402 99.6636 39.6402 99.295C39.6402 98.9263 39.3258 98.6299 38.9364 98.6299H36.025C35.6368 98.6299 35.3212 98.9275 35.3212 99.295C35.3212 99.6625 35.6356 99.9612 36.025 99.9612ZM31.3682 105.472H33.6966C34.0837 105.472 34.4004 105.174 34.4004 104.806C34.4004 104.437 34.0849 104.139 33.6966 104.139H31.3682C30.9788 104.139 30.6644 104.437 30.6644 104.806C30.6644 105.174 30.9776 105.472 31.3682 105.472ZM5.75121 99.9612H31.3682C31.7553 99.9612 32.0709 99.6636 32.0709 99.295C32.0709 98.9263 31.7565 98.6299 31.3671 98.6299H5.75121C5.36295 98.6299 5.04741 98.9275 5.04741 99.295C5.04741 99.6625 5.36178 99.9612 5.75121 99.9612Z" fill="#A3CFFB"/>
<path fill-rule="evenodd" clip-rule="evenodd" d="M28.0016 7.17539H52.4527C52.841 7.17539 53.1553 6.87782 53.1553 6.50918C53.1553 6.14054 52.841 5.84297 52.4527 5.84297H28.0016C27.6122 5.84297 27.2979 6.14054 27.2979 6.50918C27.2979 6.87782 27.6122 7.17539 28.0016 7.17539ZM62.9323 1.66469H65.8436C66.2307 1.66469 66.5462 1.36712 66.5462 0.998477C66.5462 0.630949 66.2319 0.333374 65.8424 0.333374H62.9311C62.544 0.333374 62.2273 0.630949 62.2273 0.998477C62.2273 1.36601 62.5416 1.66469 62.9311 1.66469H62.9323ZM58.2755 7.17539H60.605C60.9921 7.17539 61.3076 6.87782 61.3076 6.50918C61.3076 6.14054 60.9921 5.84297 60.6039 5.84297H58.2755C57.886 5.84297 57.5717 6.14054 57.5717 6.50918C57.5717 6.87782 57.8849 7.17539 58.2755 7.17539ZM32.6584 1.66469H58.2755C58.6625 1.66469 58.9781 1.36712 58.9781 0.998477C58.9781 0.629838 58.6637 0.333374 58.2743 0.333374H32.6584C32.2713 0.333374 31.9546 0.630949 31.9546 0.998477C31.9546 1.36601 32.269 1.66469 32.6584 1.66469Z" fill="#A3CFFB"/>
</svg>
