<svg width="64" height="64" viewBox="0 0 64 64" fill="none" xmlns="http://www.w3.org/2000/svg">
<circle cx="32" cy="32" r="32" fill="#FEF3C7"/>
<circle cx="32" cy="32" r="24" fill="#FDE68A"/>
<path d="M32 35.6667C31.4533 35.6667 31 35.2133 31 34.6667V28C31 27.4533 31.4533 27 32 27C32.5467 27 33 27.4533 33 28V34.6667C33 35.2133 32.5467 35.6667 32 35.6667Z" fill="#D97706"/>
<path d="M32 40C31.92 40 31.8266 39.9867 31.7333 39.9733C31.6533 39.96 31.5733 39.9334 31.4933 39.8934C31.4133 39.8667 31.3333 39.8267 31.2533 39.7734C31.1866 39.72 31.12 39.6667 31.0533 39.6133C30.8133 39.36 30.6666 39.0134 30.6666 38.6667C30.6666 38.32 30.8133 37.9734 31.0533 37.72C31.12 37.6667 31.1866 37.6133 31.2533 37.56C31.3333 37.5067 31.4133 37.4667 31.4933 37.44C31.5733 37.4 31.6533 37.3734 31.7333 37.36C31.9066 37.32 32.0933 37.32 32.2533 37.36C32.3466 37.3734 32.4266 37.4 32.5066 37.44C32.5866 37.4667 32.6666 37.5067 32.7466 37.56C32.8133 37.6133 32.88 37.6667 32.9466 37.72C33.1866 37.9734 33.3333 38.32 33.3333 38.6667C33.3333 39.0134 33.1866 39.36 32.9466 39.6133C32.88 39.6667 32.8133 39.72 32.7466 39.7734C32.6666 39.8267 32.5866 39.8667 32.5066 39.8934C32.4266 39.9334 32.3466 39.96 32.2533 39.9733C32.1733 39.9867 32.08 40 32 40Z" fill="#D97706"/>
<path d="M40.08 45.5466H23.92C21.32 45.5466 19.3333 44.6 18.32 42.8933C17.32 41.1866 17.4533 38.9866 18.72 36.7066L26.8 22.1733C28.1333 19.7733 29.9733 18.4533 32 18.4533C34.0266 18.4533 35.8666 19.7733 37.2 22.1733L45.28 36.72C46.5466 39 46.6933 41.1866 45.68 42.9066C44.6666 44.6 42.68 45.5466 40.08 45.5466ZM32 20.4533C30.7466 20.4533 29.52 21.4133 28.5466 23.1466L20.48 37.6933C19.5733 39.32 19.4266 40.8133 20.0533 41.8933C20.68 42.9733 22.0666 43.56 23.9333 43.56H40.0933C41.96 43.56 43.3333 42.9733 43.9733 41.8933C44.6133 40.8133 44.4533 39.3333 43.5466 37.6933L35.4533 23.1466C34.48 21.4133 33.2533 20.4533 32 20.4533Z" fill="#D97706"/>
</svg>
