<svg width="44" height="38" viewBox="0 0 44 38" fill="none" xmlns="http://www.w3.org/2000/svg">
<path d="M30.351 11.1367C29.8452 6.71605 28.7706 2.94096 27.6896 0C25.8811 0.334497 23.7782 0.6087 21.419 0.71431C18.3655 0.850644 15.6396 0.670914 13.3692 0.384422C14.2594 1.84453 15.1531 3.53699 15.9396 5.45487C16.2668 6.25252 16.5486 7.02482 16.7925 7.76601C16.4469 6.0605 16.1012 4.35499 15.7556 2.64948C16.9235 2.71054 18.1282 2.75125 19.3667 2.76737C21.7758 2.79887 24.0539 2.73435 26.188 2.60301C26.7986 4.12034 27.3697 5.74251 27.872 7.46608C29.8786 14.3523 30.1044 20.5253 29.7353 25.3922C30.4543 21.8844 31.02 16.986 30.351 11.1363V11.1367Z" fill="#60C7CA"/>
<path d="M33.1463 4.17485C31.672 3.87338 30.3728 3.47936 29.2679 3.07458C29.4481 3.69442 29.6282 4.31387 29.8087 4.93371C30.6877 5.2444 31.6855 5.54625 32.7926 5.8001C33.8802 6.04972 34.8926 6.2114 35.8054 6.31509C35.4029 10.0349 34.5765 14.6268 32.8813 19.6961C31.5119 23.7907 29.887 27.2659 28.3424 30.0889C31.2058 26.1572 34.6721 20.2902 36.6495 12.5818C37.3757 9.75108 37.7909 7.10199 38.0117 4.71558C36.6276 4.68793 34.9767 4.54852 33.1463 4.17447V4.17485Z" fill="#00B4B7"/>
<path d="M40.5366 11.8753C39.6795 11.3496 38.8784 10.82 38.1318 10.2961C37.9617 10.9164 37.7919 11.537 37.6218 12.1572C38.4456 12.8389 39.403 13.5409 40.5036 14.2095C40.933 14.4702 41.355 14.7083 41.7659 14.9253C40.017 18.3893 37.3891 22.7032 33.468 27.0563C30.9971 29.7995 28.5243 31.9908 26.3015 33.7171C29.2567 31.9532 33.3878 29.023 37.308 24.4176C40.6349 20.5092 42.7122 16.6846 43.9999 13.802C42.8992 13.2498 41.7371 12.6119 40.5363 11.8757L40.5366 11.8753Z" fill="#02969C"/>
<path d="M36.5278 26.2317C36.2609 26.4859 35.9878 26.734 35.7094 26.9756C32.379 32.7914 26.1562 35.3207 19 35C8.80457 34.543 2.04261 27.1958 2.5 17C2.82029 9.85728 5.857 3.82117 11.9298 1.0177C5.22257 3.76779 0.366034 10.2158 0.0196323 17.9338C-0.455422 28.529 7.74877 37.5036 18.344 37.9786C26.8861 38.3615 34.3745 33.1033 37.2048 25.4986C36.9982 25.7647 36.7724 25.999 36.5278 26.2317Z" fill="#F89A23"/>
<path d="M25.0265 19.7258C24.7163 19.0645 24.2713 18.5011 23.703 18.05C23.1703 17.6275 22.5336 17.2829 21.8104 17.026C21.3814 16.8736 20.9184 16.7334 20.4312 16.6093V16.1581H25.1962L25.1122 15.069C24.9917 13.5025 24.4344 12.2327 23.4568 11.294C22.6811 10.5499 21.6641 10.05 20.4312 9.80659V8H16.9848V9.77463C16.4939 9.86846 16.03 10.002 15.6031 10.1725C14.8901 10.4577 14.2706 10.8433 13.7617 11.319C13.2368 11.8095 12.8307 12.402 12.5549 13.0797C12.2853 13.7422 12.1489 14.4794 12.1489 15.2706C12.1489 16.1512 12.3115 16.9289 12.6324 17.5816C12.9491 18.227 13.3912 18.783 13.9456 19.2337C14.4685 19.6586 15.079 20.0073 15.7596 20.2696C16.1489 20.42 16.5598 20.5539 16.9848 20.6691V22.5564C16.8864 22.3179 16.8225 22.0286 16.7934 21.6914L16.7135 20.7666H11.6531L11.7223 21.8434C11.7846 22.8113 11.9739 23.6713 12.2849 24.3995C12.6062 25.153 13.0466 25.7955 13.5941 26.3085C14.1399 26.8207 14.7991 27.2181 15.5531 27.4898C15.996 27.6496 16.4767 27.7746 16.9843 27.8631V29.6565H20.4308V27.8713C20.9261 27.784 21.3994 27.6525 21.8403 27.4795C22.5807 27.189 23.2298 26.7821 23.7698 26.2704C24.3172 25.7512 24.7458 25.1263 25.0437 24.413C25.3383 23.7066 25.4879 22.9129 25.4879 22.0549C25.4879 21.1968 25.3326 20.3798 25.0261 19.7258H25.0265Z" fill="#FAA31B"/>
<path d="M24.1103 20.1548C23.866 19.6344 23.5206 19.1968 23.074 18.8424C22.627 18.4879 22.0931 18.1999 21.4711 17.9786C20.8495 17.7574 20.1652 17.5689 19.4194 17.4119V13.2808C20.4049 13.4927 20.9392 14.1147 21.022 15.146H24.1033C24.0017 13.8291 23.553 12.7879 22.756 12.0233C21.9591 11.2587 20.847 10.8121 19.4194 10.683V9.01123H17.9964V10.6556C17.2502 10.7203 16.5778 10.8719 15.9792 11.1116C15.3801 11.3513 14.8716 11.6668 14.4524 12.0581C14.0333 12.4499 13.7132 12.917 13.492 13.4607C13.2711 14.0044 13.1605 14.6076 13.1605 15.2706C13.1605 15.9983 13.2871 16.6203 13.5403 17.1358C13.7936 17.6516 14.1414 18.0893 14.5836 18.4482C15.0257 18.8075 15.5391 19.1001 16.1242 19.3255C16.7089 19.5512 17.3334 19.7332 17.9964 19.8713V24.3756C17.2871 24.2744 16.7573 24.0028 16.4074 23.5607C16.057 23.1185 15.8501 22.5244 15.7858 21.7782H12.7323C12.7876 22.635 12.9487 23.3763 13.2158 24.0028C13.483 24.6293 13.8399 25.1521 14.2865 25.5709C14.7331 25.9901 15.2695 26.3125 15.896 26.5379C16.5221 26.7637 17.2223 26.9087 17.996 26.9731V28.6448H19.419V26.9731C20.1652 26.9268 20.849 26.7817 21.4706 26.5379C22.0922 26.2941 22.6265 25.9602 23.0736 25.5361C23.5202 25.1124 23.8656 24.608 24.1098 24.0233C24.3536 23.4385 24.4762 22.7821 24.4762 22.0544C24.4762 21.3267 24.3541 20.6752 24.1098 20.1544L24.1103 20.1548ZM17.9964 17.053C17.4805 16.9059 17.0683 16.6936 16.7597 16.4175C16.4512 16.1413 16.2967 15.7266 16.2967 15.1739C16.2967 14.0872 16.8634 13.4468 17.9964 13.2534V17.053ZM20.8564 23.6987C20.5524 24.0671 20.0734 24.2929 19.4194 24.3756V20.2445C20.1103 20.4289 20.5983 20.6707 20.8839 20.9698C21.1691 21.2693 21.3121 21.677 21.3121 22.1925C21.3121 22.828 21.16 23.3304 20.856 23.6987H20.8564Z" fill="#FFD981"/>
<path d="M4.75004 9.49957C3.97198 11.1014 2.52531 14.6691 3.10137 19.1931C4.04648 26.6142 9.69107 30.7676 10.7683 31.5299C11.208 30.9692 11.6477 30.4085 12.0875 29.8474C10.9469 29.0075 9.4184 27.7095 7.96559 25.8419C7.04889 24.6637 5.58225 21.7236 4.75004 18C3.86291 14.0306 4.96843 10.6921 5.49994 9L4.75004 9.49957Z" fill="#FFF4CF"/>
<path d="M13.0964 30.4036C12.6659 30.9623 12.2354 31.5211 11.8049 32.0799C12.3091 32.4528 13.0146 32.8917 13.9209 33.2339C14.5208 33.4605 15.0738 33.5938 15.5423 33.6736C15.8353 32.9593 16.1287 32.2446 16.4218 31.5303C15.9079 31.384 15.376 31.22 14.828 31.0357C14.2205 30.8314 13.6433 30.6194 13.0968 30.4036H13.0964Z" fill="#FFF4CF"/>
</svg>
