<svg width="20" height="20" viewBox="0 0 20 20" fill="none" xmlns="http://www.w3.org/2000/svg">
<g clip-path="url(#clip0_1_2998)">
<path d="M15.0001 1.66667L18.3334 5.00001M1.66675 18.3333L2.73042 14.4332C2.79981 14.1788 2.83451 14.0515 2.88777 13.9329C2.93507 13.8276 2.99318 13.7274 3.06118 13.6341C3.13776 13.529 3.23101 13.4357 3.4175 13.2493L12.0287 4.63808C12.1937 4.47307 12.2762 4.39057 12.3713 4.35965C12.455 4.33246 12.5452 4.33246 12.6288 4.35965C12.724 4.39057 12.8065 4.47307 12.9715 4.63808L15.362 7.0286C15.527 7.19361 15.6095 7.27611 15.6404 7.37125C15.6676 7.45493 15.6676 7.54508 15.6404 7.62876C15.6095 7.7239 15.527 7.8064 15.362 7.97141L6.75083 16.5826C6.56434 16.7691 6.47109 16.8623 6.36598 16.9389C6.27266 17.0069 6.17252 17.065 6.06718 17.1123C5.94854 17.1656 5.82131 17.2003 5.56686 17.2697L1.66675 18.3333Z" stroke="#2D60FF" stroke-width="1.5" stroke-linecap="round" stroke-linejoin="round"/>
</g>
<defs>
<clipPath id="clip0_1_2998">
<rect width="20" height="20" fill="white"/>
</clipPath>
</defs>
</svg>
