<svg width="20" height="20" viewBox="0 0 20 20" fill="none" xmlns="http://www.w3.org/2000/svg">
<g clip-path="url(#clip0_1_3974)">
<path d="M14.9998 1.66675L18.3331 5.00008M1.66644 18.3334L2.73011 14.4333C2.79951 14.1789 2.8342 14.0516 2.88747 13.933C2.93476 13.8276 2.99288 13.7275 3.06087 13.6342C3.13745 13.5291 3.2307 13.4358 3.4172 13.2493L12.0284 4.63815C12.1934 4.47315 12.2759 4.39064 12.371 4.35973C12.4547 4.33254 12.5448 4.33254 12.6285 4.35973C12.7237 4.39064 12.8062 4.47315 12.9712 4.63815L15.3617 7.02868C15.5267 7.19368 15.6092 7.27619 15.6401 7.37132C15.6673 7.45501 15.6673 7.54515 15.6401 7.62884C15.6092 7.72398 15.5267 7.80648 15.3617 7.97149L6.75053 16.5827C6.56404 16.7692 6.47079 16.8624 6.36568 16.939C6.27235 17.007 6.17221 17.0651 6.06687 17.1124C5.94823 17.1657 5.82101 17.2004 5.56656 17.2697L1.66644 18.3334Z" stroke="#2D60FF" stroke-width="1.5" stroke-linecap="round" stroke-linejoin="round"/>
</g>
<defs>
<clipPath id="clip0_1_3974">
<rect width="20" height="20" fill="white" transform="translate(-0.000244141 6.10352e-05)"/>
</clipPath>
</defs>
</svg>
