<svg width="20" height="20" viewBox="0 0 20 20" fill="none" xmlns="http://www.w3.org/2000/svg">
<g clip-path="url(#clip0_1_2485)">
<path d="M14.9998 1.66666L18.3332 4.99999M1.6665 18.3333L2.73017 14.4332C2.79957 14.1788 2.83426 14.0515 2.88753 13.9329C2.93482 13.8276 2.99294 13.7274 3.06093 13.6341C3.13752 13.529 3.23076 13.4357 3.41726 13.2492L12.0284 4.63806C12.1934 4.47305 12.2759 4.39055 12.3711 4.35964C12.4548 4.33245 12.5449 4.33245 12.6286 4.35964C12.7237 4.39055 12.8062 4.47305 12.9712 4.63806L15.3618 7.02859C15.5268 7.19359 15.6093 7.2761 15.6402 7.37123C15.6674 7.45492 15.6674 7.54506 15.6402 7.62875C15.6093 7.72388 15.5268 7.80639 15.3618 7.97139L6.75059 16.5826C6.5641 16.7691 6.47085 16.8623 6.36574 16.9389C6.27241 17.0069 6.17227 17.065 6.06693 17.1123C5.94829 17.1656 5.82107 17.2003 5.56662 17.2697L1.6665 18.3333Z" stroke="#2D60FF" stroke-width="1.5" stroke-linecap="round" stroke-linejoin="round"/>
</g>
<defs>
<clipPath id="clip0_1_2485">
<rect width="20" height="20" fill="white"/>
</clipPath>
</defs>
</svg>
