<svg width="20" height="20" viewBox="0 0 20 20" fill="none" xmlns="http://www.w3.org/2000/svg">
<g clip-path="url(#clip0_1_3988)">
<path d="M15 1.66669L18.3334 5.00002M1.66669 18.3334L2.73035 14.4332C2.79975 14.1788 2.83445 14.0516 2.88771 13.9329C2.93501 13.8276 2.99312 13.7274 3.06112 13.6341C3.1377 13.529 3.23095 13.4358 3.41744 13.2493L12.0286 4.63809C12.1936 4.47308 12.2761 4.39058 12.3713 4.35967C12.4549 4.33248 12.5451 4.33248 12.6288 4.35967C12.7239 4.39058 12.8064 4.47308 12.9714 4.63809L15.3619 7.02862C15.527 7.19362 15.6095 7.27613 15.6404 7.37126C15.6676 7.45495 15.6676 7.54509 15.6404 7.62878C15.6095 7.72391 15.527 7.80642 15.3619 7.97143L6.75077 16.5826C6.56428 16.7691 6.47103 16.8623 6.36592 16.9389C6.2726 17.0069 6.17246 17.065 6.06712 17.1123C5.94848 17.1656 5.82125 17.2003 5.5668 17.2697L1.66669 18.3334Z" stroke="#2D60FF" stroke-width="1.5" stroke-linecap="round" stroke-linejoin="round"/>
</g>
<defs>
<clipPath id="clip0_1_3988">
<rect width="20" height="20" fill="white"/>
</clipPath>
</defs>
</svg>
