<svg width="25" height="25" viewBox="0 0 25 25" fill="none" xmlns="http://www.w3.org/2000/svg">
<g clip-path="url(#clip0_1_3632)">
<path d="M5.20801 22.9167C5.20866 23.469 5.42837 23.9986 5.81893 24.3891C6.20948 24.7797 6.73901 24.9994 7.29134 25H17.708C18.2603 24.9994 18.7899 24.7797 19.1804 24.3891C19.571 23.9986 19.7907 23.469 19.7913 22.9167V22.0052H5.20801V22.9167Z" fill="#2D60FF"/>
<path d="M19.7913 2.08333C19.7907 1.531 19.571 1.00148 19.1804 0.610917C18.7899 0.220358 18.2603 0.00065473 17.708 0L7.29134 0C6.73901 0.00065473 6.20948 0.220358 5.81893 0.610917C5.42837 1.00148 5.20866 1.531 5.20801 2.08333V3.125H19.7913V2.08333Z" fill="#2D60FF"/>
<path d="M24.7101 6.70052L21.5851 3.44531L20.0822 4.88802L21.3896 6.25H19.792V8.33333H21.502L20.113 9.66459L21.5544 11.1688L24.6794 8.17396C24.7782 8.07926 24.8574 7.96602 24.9124 7.8407C24.9674 7.71538 24.9972 7.58045 25.0001 7.44361C25.0029 7.30677 24.9788 7.17071 24.929 7.04321C24.8793 6.91571 24.8049 6.79926 24.7101 6.70052Z" fill="#2D60FF"/>
<path d="M16.6663 6.25002H19.7913V4.16669H5.20801V16.6667H8.33301V18.75H5.20801V20.8334H19.7913V8.33335H16.6663V6.25002ZM15.6247 10.4167H11.9788C11.8407 10.4167 11.7082 10.4716 11.6106 10.5692C11.5129 10.6669 11.458 10.7994 11.458 10.9375C11.458 11.0757 11.5129 11.2081 11.6106 11.3058C11.7082 11.4035 11.8407 11.4584 11.9788 11.4584H13.0205C13.6663 11.4577 14.2893 11.697 14.7686 12.1299C15.2479 12.5628 15.5492 13.1583 15.6141 13.8008C15.679 14.4433 15.5029 15.0871 15.1198 15.607C14.7368 16.127 14.1742 16.4861 13.5413 16.6146V17.7084H11.458V16.6667H9.37467V14.5834H13.0205C13.1586 14.5834 13.2911 14.5285 13.3888 14.4308C13.4865 14.3331 13.5413 14.2007 13.5413 14.0625C13.5413 13.9244 13.4865 13.7919 13.3888 13.6942C13.2911 13.5966 13.1586 13.5417 13.0205 13.5417H11.9788C11.333 13.5423 10.71 13.303 10.2308 12.8701C9.75148 12.4373 9.45014 11.8418 9.38524 11.1992C9.32034 10.5567 9.4965 9.91297 9.87953 9.393C10.2626 8.87304 10.8251 8.51395 11.458 8.38544V7.29169H13.5413V8.33335H15.6247V10.4167Z" fill="#2D60FF"/>
<path d="M3.49828 16.6667L4.88734 15.3354L3.44593 13.8312L0.320931 16.826C0.222115 16.9207 0.142929 17.034 0.0879011 17.1593C0.0328728 17.2846 0.00308028 17.4195 0.000226477 17.5564C-0.00262733 17.6932 0.0215135 17.8293 0.0712692 17.9568C0.121025 18.0843 0.19542 18.2007 0.290202 18.2995L3.4152 21.5547L4.91807 20.112L3.61064 18.75H5.2083V16.6667H3.49828Z" fill="#2D60FF"/>
</g>
<defs>
<clipPath id="clip0_1_3632">
<rect width="25" height="25" fill="white"/>
</clipPath>
</defs>
</svg>
