<svg width="20" height="20" viewBox="0 0 20 20" fill="none" xmlns="http://www.w3.org/2000/svg">
<path d="M13.3338 4.99996V4.33329C13.3338 3.39987 13.3338 2.93316 13.1522 2.57664C12.9924 2.26304 12.7374 2.00807 12.4238 1.84828C12.0673 1.66663 11.6006 1.66663 10.6672 1.66663H9.33382C8.4004 1.66663 7.93369 1.66663 7.57717 1.84828C7.26357 2.00807 7.0086 2.26304 6.84881 2.57664C6.66715 2.93316 6.66715 3.39987 6.66715 4.33329V4.99996M8.33382 9.58329V13.75M11.6672 9.58329V13.75M2.50049 4.99996H17.5005M15.8338 4.99996V14.3333C15.8338 15.7334 15.8338 16.4335 15.5613 16.9683C15.3217 17.4387 14.9392 17.8211 14.4688 18.0608C13.934 18.3333 13.234 18.3333 11.8338 18.3333H8.16716C6.76702 18.3333 6.06696 18.3333 5.53218 18.0608C5.06177 17.8211 4.67932 17.4387 4.43964 16.9683C4.16715 16.4335 4.16715 15.7334 4.16715 14.3333V4.99996" stroke="#FE5C73" stroke-width="1.5" stroke-linecap="round" stroke-linejoin="round"/>
</svg>
