<svg width="20" height="20" viewBox="0 0 20 20" fill="none" xmlns="http://www.w3.org/2000/svg">
<g clip-path="url(#clip0_1_3976)">
<path d="M13.3337 5.00008V4.33341C13.3337 3.39999 13.3337 2.93328 13.152 2.57676C12.9923 2.26316 12.7373 2.00819 12.4237 1.8484C12.0672 1.66675 11.6005 1.66675 10.667 1.66675H9.3337C8.40028 1.66675 7.93357 1.66675 7.57705 1.8484C7.26345 2.00819 7.00848 2.26316 6.84869 2.57676C6.66703 2.93328 6.66703 3.39999 6.66703 4.33341V5.00008M8.3337 9.58341V13.7501M11.667 9.58341V13.7501M2.50037 5.00008H17.5004M15.8337 5.00008V14.3334C15.8337 15.7335 15.8337 16.4336 15.5612 16.9684C15.3215 17.4388 14.9391 17.8212 14.4687 18.0609C13.9339 18.3334 13.2338 18.3334 11.8337 18.3334H8.16703C6.7669 18.3334 6.06684 18.3334 5.53206 18.0609C5.06165 17.8212 4.6792 17.4388 4.43952 16.9684C4.16703 16.4336 4.16703 15.7335 4.16703 14.3334V5.00008" stroke="#FE5C73" stroke-width="1.5" stroke-linecap="round" stroke-linejoin="round"/>
</g>
<defs>
<clipPath id="clip0_1_3976">
<rect width="20" height="20" fill="white" transform="translate(0.000366211 6.10352e-05)"/>
</clipPath>
</defs>
</svg>
